<?xml version="1.0" standalone="no"?><!DOCTYPE svg PUBLIC "-//W3C//DTD SVG 1.1//EN" "http://www.w3.org/Graphics/SVG/1.1/DTD/svg11.dtd"><svg t="1605249975438" class="icon" viewBox="0 0 1024 1024" version="1.1" xmlns="http://www.w3.org/2000/svg" p-id="4307" data-darkreader-inline-fill="" xmlns:xlink="http://www.w3.org/1999/xlink" width="200" height="200"><defs><style type="text/css"></style></defs><path d="M313.607957 859.345213c-2.546208 0-232.978036-2.546208-232.978036-232.553667a223.641939 223.641939 0 0 1 232.978036-237.221716h551.678409l-183.326979-183.326979a21.2184 21.2184 0 0 1 0-29.70576 21.2184 21.2184 0 0 1 30.130128 0L933.609615 395.510982a22.491504 22.491504 0 0 1 4.668048 23.340241 21.2184 21.2184 0 0 1-19.520929 13.155408H313.607957a180.780771 180.780771 0 0 0-190.541235 194.784915c0 187.146291 182.902611 190.116867 190.541235 190.116867a21.642768 21.642768 0 0 1 21.2184 21.2184 21.2184 21.2184 0 0 1-21.2184 21.2184z" p-id="4308"></path><path d="M699.358475 648.858682a19.520928 19.520928 0 0 1-14.85288-5.941152 21.2184 21.2184 0 0 1 0-30.130128l216.852051-217.27642a21.2184 21.2184 0 0 1 32.251969 30.130129L714.211355 642.068794a19.520928 19.520928 0 0 1-14.85288 6.789888z" p-id="4309"></path></svg>