<?xml version="1.0" standalone="no"?><!DOCTYPE svg PUBLIC "-//W3C//DTD SVG 1.1//EN" "http://www.w3.org/Graphics/SVG/1.1/DTD/svg11.dtd"><svg t="1605234019016" class="icon" viewBox="0 0 1024 1024" version="1.1" xmlns="http://www.w3.org/2000/svg" p-id="2575" data-darkreader-inline-fill="" xmlns:xlink="http://www.w3.org/1999/xlink" width="200" height="200"><defs><style type="text/css"></style></defs><path d="M279.64 232.564l0.402 0.394L512 464.917l231.958-231.959c13.278-13.277 34.806-13.277 48.084 0 13.145 13.145 13.276 34.376 0.394 47.683l-0.394 0.4L560.083 513l231.959 231.958c13.277 13.278 13.277 34.806 0 48.084-13.145 13.145-34.376 13.276-47.683 0.394l-0.4-0.394L512 561.083 280.042 793.042c-13.278 13.277-34.806 13.277-48.084 0-13.145-13.145-13.276-34.376-0.394-47.683l0.394-0.4L463.917 513 231.958 281.042c-13.277-13.278-13.277-34.806 0-48.084 13.145-13.145 34.376-13.276 47.683-0.394z" p-id="2576"></path></svg>