<?xml version="1.0" standalone="no"?><!DOCTYPE svg PUBLIC "-//W3C//DTD SVG 1.1//EN" "http://www.w3.org/Graphics/SVG/1.1/DTD/svg11.dtd"><svg t="1605250045257" class="icon" viewBox="0 0 1024 1024" version="1.1" xmlns="http://www.w3.org/2000/svg" p-id="2942" data-darkreader-inline-fill="" xmlns:xlink="http://www.w3.org/1999/xlink" width="200" height="200"><defs><style type="text/css"></style></defs><path d="M426.666311 853.332622a426.666311 426.666311 0 1 1 426.666311-426.666311 426.666311 426.666311 0 0 1-426.666311 426.666311z m0-767.99936a341.333049 341.333049 0 1 0 341.333049 341.333049 341.333049 341.333049 0 0 0-341.333049-341.333049z" p-id="2943"></path><path d="M981.332516 1023.999147a42.666631 42.666631 0 0 1-30.293309-12.373323L682.666098 743.252714A42.666631 42.666631 0 0 1 743.252714 682.666098l268.37311 267.946443a42.666631 42.666631 0 0 1 0 60.586616 42.666631 42.666631 0 0 1-30.293308 12.79999z" p-id="2944"></path></svg>