<?xml version="1.0" standalone="no"?><!DOCTYPE svg PUBLIC "-//W3C//DTD SVG 1.1//EN" "http://www.w3.org/Graphics/SVG/1.1/DTD/svg11.dtd"><svg t="1605250030244" class="icon" viewBox="0 0 1024 1024" version="1.1" xmlns="http://www.w3.org/2000/svg" p-id="2797" data-darkreader-inline-fill="" xmlns:xlink="http://www.w3.org/1999/xlink" width="200" height="200"><defs><style type="text/css"></style></defs><path d="M618.666667 298.666667H316.16l55.466667-55.04a42.666667 42.666667 0 0 0-60.586667-60.586667l-128 128a42.666667 42.666667 0 0 0-8.96 14.08 42.666667 42.666667 0 0 0 0 32.426667 42.666667 42.666667 0 0 0 8.96 14.08l128 128a42.666667 42.666667 0 0 0 60.586667 0 42.666667 42.666667 0 0 0 0-60.586667L316.16 384h302.506667a192 192 0 0 1 0 384H170.666667a42.666667 42.666667 0 0 0 0 85.333333h448a277.333333 277.333333 0 0 0 0-554.666666z" p-id="2798"></path></svg>